<svg xmlns="http://www.w3.org/2000/svg" viewBox="0 0 29.83 10.32"><defs><style>.cls-1{fill:#4c4d4f;}</style></defs><title>logo</title><g id="Layer_2" data-name="Layer 2"><g id="Layer_1-2" data-name="Layer 1"><g id="Layer_2-2" data-name="Layer 2"><g id="Layer_1-2-2" data-name="Layer 1-2"><path class="cls-1" d="M21.17,5.83a0,0,0,0,0,0,0l-.23-.23h0l-.23.23a0,0,0,0,0,0,0l.23.23h0l.23-.23"/><path class="cls-1" d="M4.72,4.38s0,0,0,0a0,0,0,0,1,0,0c0,.19-.12.89-.17,1.8,0,.15,0,.3,0,.45v.05l0,0a.75.75,0,0,1,.61-.26A.63.63,0,0,1,5.86,7a1,1,0,0,1-.38.89,1.43,1.43,0,0,1-.78.24,1.24,1.24,0,0,1-.8-.18.65.65,0,0,1-.22-.56v-.1a.73.73,0,0,1,0-.09s0,0,0,0,0,0,0,0l0,.06c.16.33.74.37.93.37a.72.72,0,0,0,.69-.3A.44.44,0,0,0,5.42,7c0-.16-.15-.24-.35-.24a.51.51,0,0,0-.51.51v.18h0l-.36-.21,0,0a.08.08,0,0,1,0-.05c0-.32,0-.68,0-.91q0-.69.11-1.34a.37.37,0,0,1,0-.08l0-.05.42-.35"/><path class="cls-1" d="M20.44,6.61l.42-.36,0,0v0c0,.33,0,.66,0,1v.33a.34.34,0,0,0,.08.27.4.4,0,0,0,.33.05h0l0,0h0A1,1,0,0,1,20.9,8h-.06a.47.47,0,0,1-.29-.12l0,0,0,0a.41.41,0,0,1-.09-.26V6.67a.17.17,0,0,1,0,0l0,0"/><path class="cls-1" d="M20.22,7a.63.63,0,0,0-.65-.56.74.74,0,0,0-.6.26l0,0V6.65a3.5,3.5,0,0,1,0-.45c0-.91.14-1.61.17-1.8v0h0l-.42.35,0,.05a.21.21,0,0,0,0,.07c-.05.42-.09.88-.11,1.34,0,.23,0,.59,0,.91a.08.08,0,0,0,0,.05l0,0,.36.21h0V7.23a.51.51,0,0,1,.49-.53h0c.2,0,.32.08.35.24a.45.45,0,0,1-.07.33.73.73,0,0,1-.69.3c-.19,0-.76,0-.93-.37l0,0s0,0,0,0,0,0,0,0a.33.33,0,0,0,0,0,.49.49,0,0,1-.14.28.56.56,0,0,1-.38.05l-.29-.07h0a1,1,0,0,0,0-.79.68.68,0,0,0-.49-.31,1,1,0,0,0-.67.14.51.51,0,0,0-.12.33v0s0,0,0,0a.83.83,0,0,1,.34-.17.63.63,0,0,1,.38,0,.42.42,0,0,1,.21.33.52.52,0,0,1,0,.17v0l0,0c-.24-.22-.39-.29-.6-.25a.52.52,0,0,0-.31.18s-.18.26-.3.3a3.75,3.75,0,0,1-1.5,0c-.09-.06-.08-.2-.07-.25h0s0-.33,0-.49A.33.33,0,0,0,14,6.41a.28.28,0,0,0-.19-.07.4.4,0,0,0-.25.11,2.55,2.55,0,0,0-.52.58.05.05,0,0,1,0,0s0,0,0,0c0-.23,0-.86,0-.89,0-.91.14-1.61.17-1.8h0v0h0l-.42.36,0,.05a.21.21,0,0,0,0,.08h0c0,.33-.09.78-.11,1.32,0,.86,0,1.28,0,1.73,0,.11.06.15.1.15A.13.13,0,0,0,12.85,8a3.9,3.9,0,0,1,.78-1.08.07.07,0,0,1,.06,0s0,0,0,.06v.14a2.39,2.39,0,0,1,0,.26.62.62,0,0,0,.23.59A5.83,5.83,0,0,0,15.28,8c.37,0,.42-.07.5-.15a.49.49,0,0,0,.08-.14.55.55,0,0,0,.27.27.8.8,0,0,0,.66-.05L17,7.84h0l.18.12a1.21,1.21,0,0,0,.5.08c.32,0,.43-.15.46-.25a.12.12,0,0,1,0-.07.49.49,0,0,0,.15.2,1.25,1.25,0,0,0,.8.17,1.43,1.43,0,0,0,.78-.24A1,1,0,0,0,20.23,7m-3.52.62a.5.5,0,0,1-.38.1c-.16,0-.26-.09-.26-.19s.08-.16.23-.17a.64.64,0,0,1,.41.23h0Z"/><path class="cls-1" d="M12,5.31a1.55,1.55,0,0,0-.77-.59,1.81,1.81,0,0,0-.63-.11s-.3,0-.47,0a.46.46,0,0,1-.21-.08s0,0-.05,0,0,.05,0,.09c0,.3-.1,1.3-.12,1.55s0,.59,0,.91a.08.08,0,0,0,0,.05l0,0,.36.21h0V6.56a4.37,4.37,0,0,1,0-.44c0-.23,0-.45,0-.68h0a.46.46,0,0,1,.05-.21.27.27,0,0,1,.19-.12,1,1,0,0,1,.54.07,1.18,1.18,0,0,1,.52.38,1.15,1.15,0,0,1,.17.4,1.62,1.62,0,0,1-.13.95,1.11,1.11,0,0,1-.76.58,2.33,2.33,0,0,1-.47.05c-.19,0-.95-.09-1.11-.48,0,0,0-.06,0-.06s0,0,0,.06a.91.91,0,0,1-.08.26c0,.07-.1.23-.67.21a1.32,1.32,0,0,1-.72-.1.21.21,0,0,1-.08-.19s0-.77,0-.86V6.32s0,0,0,0-.21.17-.28.24,0,0-.06.06a.17.17,0,0,0,0,.07l0,.75h0a.79.79,0,0,1-.31.08,1,1,0,0,1-.53-.11.23.23,0,0,1-.11-.15.31.31,0,0,1,0-.21l.3-.44s0-.05,0-.07a.11.11,0,0,0,0-.05l-.15-.11-.06,0a0,0,0,0,0-.06,0,1.41,1.41,0,0,0-.31.9.77.77,0,0,0,.22.55A.89.89,0,0,0,6.91,8a.7.7,0,0,0,.44-.18h0a.32.32,0,0,0,.1.08,2.67,2.67,0,0,0,1,.13c.59,0,.77-.18.82-.34a.6.6,0,0,0,.12.15,1.59,1.59,0,0,0,.93.23,2.77,2.77,0,0,0,1-.13A1.46,1.46,0,0,0,12,7.49a1.83,1.83,0,0,0,.34-1.14,1.69,1.69,0,0,0-.31-1"/><path class="cls-1" d="M3.78,7a.49.49,0,0,0,0-.54A.7.7,0,0,0,3,6.1c-.09-.37-.36-1.5-.36-1.52a.16.16,0,0,0-.06-.09l-.11,0a.39.39,0,0,0-.23.06.45.45,0,0,0-.14.21c-.07.16-.18.42-.33.74l-.33.72C1.32,6.54.91,7.34.87,7.41a.34.34,0,0,1-.13.13.37.37,0,0,1-.28,0,.33.33,0,0,1-.2-.21.37.37,0,0,1,0-.14.41.41,0,0,1,.12-.25l0,0h0A.51.51,0,0,0,0,7.34v0a.63.63,0,0,0,.33.53c.11.06.54.23.79,0a2.11,2.11,0,0,0,.3-.5l.47-1,.48-1,0,0,.16.81A.81.81,0,0,0,2,6.83c-.08.3.21.74.93,1.08a3.32,3.32,0,0,0,.44.15c.11,0,.12,0,.13-.06a.63.63,0,0,0,0-.2c0-.09-.23-.9-.31-1.25a.53.53,0,0,1,.48.16A.48.48,0,0,1,3.73,7V7s0,0,0,0m-1,.3h0a1.38,1.38,0,0,1-.35-.25c-.08-.09-.14-.18,0-.31a.75.75,0,0,1,.21-.11l.14.67"/><path class="cls-1" d="M6.62,6l.17-.19,0,0h0L7,6a.36.36,0,0,1,.11.24.29.29,0,0,1,0,.1.85.85,0,0,1-.1.26s0,0,0,0,0,0,0,0v0a.37.37,0,0,0-.09-.23l-.28-.21,0,0a.06.06,0,0,1,0,0"/><path class="cls-1" d="M15.11,6.9a0,0,0,0,0,0,0l-.23-.23h0l-.23.23a0,0,0,0,0,0,0l.23.23h0l.23-.23"/><path class="cls-1" d="M27.36,8.78a3.26,3.26,0,0,0,1.9-1.61,4.25,4.25,0,0,0,.56-2.45h0c0-.27-.11-.55-.17-.55C29.4,4.14,29,6,28.84,7a1,1,0,0,1-.09.32.8.8,0,0,1-.11.16s-.09.08-.08,0a22.64,22.64,0,0,1,1-4.34A.21.21,0,0,1,29.7,3q-.08-.18-.17-.35C28.07,0,24.17-.62,22,.58c-.94.52-.86,3,.4,5.52A3.27,3.27,0,0,1,22.79,4c.47-1,2-2.4,3.12-2,1,.37.6,1.9.6,1.9s.67-.9,1.21-.93c.28,0,.77.19.18,1.14-.68,1.11-1.82,1.61-2.22,1.38a.89.89,0,0,1-.38-.71c0-.11-.08-.46-.41-.49S24,4.81,24,5s.49,0,.7.16a.53.53,0,0,1,.21.63c-.21,1-1,1.57-1.6,1.44A1.4,1.4,0,0,1,23,7.1c.18.28.36.55.55.8l.17-.29h0a1.56,1.56,0,0,0,.92-.27c-.15.48-.34.79-1,.72l0,0,.44.19a2.35,2.35,0,0,0,2-.22,2.41,2.41,0,0,0,.83-.77h-.4c-.1,0-.61-.08-.28-.86.06-.14.29-.68.61-.56a.61.61,0,0,1,.42.5c0,.06,0,.13,0,.19a1.27,1.27,0,0,0,.6-.84c.06-.32,0-.48-.11-.5s-.34.58-.37.57,0-.1,0-.19c.21-.71.52-1,.62-1s.24.33.24.76a2,2,0,0,1-1,1.78,1.79,1.79,0,0,1-.33.79,2.48,2.48,0,0,1-2.49.83l-.28-.08.31.32.26,0a5.57,5.57,0,0,0,2.62-.29m.38-6.29-.3.3a0,0,0,0,1,0,0h0l-.31-.3a0,0,0,0,1,0,0l.31-.3a0,0,0,0,1,0,0h0l.3.3a0,0,0,0,1,0,0M25.91,6.26l-.3.3a0,0,0,0,1,0,0h0l-.31-.3a0,0,0,0,1,0,0l.31-.3a0,0,0,0,1,0,0h0l.3.3a0,0,0,0,1,0,0m1.78,1.12.31-.3a0,0,0,0,1,0,0h0l.3.31a0,0,0,0,1,0,0l-.3.3a0,0,0,0,1,0,0h0l-.31-.3a0,0,0,0,1,0,0m-2.4-3.56c.26.13.21.49.31.81a.44.44,0,0,0,.35.34A2.23,2.23,0,0,0,26,3.11a1,1,0,0,0-1.34-.49l-.07,0a3.9,3.9,0,0,0-1.73,2.08c-.49,1.31.21,1.76.65,1.84A1.23,1.23,0,0,0,24.66,6c0-.12-.08-.19-.21-.21s-.48,0-.7-.21.2-1.06.46-1.31.68-.61,1.07-.41m1.48,2.34c-.18,0-.4.52-.17.58h.1A1.23,1.23,0,0,0,27,6.69c0-.33-.11-.48-.25-.51m.75,3.12a4.08,4.08,0,0,1-2.31.15,3,3,0,0,1-.42-.14c1,.86,1.92,1.23,2.53.9a5.3,5.3,0,0,0,2-2.06,4.25,4.25,0,0,1-1.76,1.15m.24-5.56c-.16-.18-.69.07-1,.46a3.08,3.08,0,0,0-.48.82,4.27,4.27,0,0,0,1.06-.63c.18-.14.61-.48.45-.66"/></g></g></g></g></svg>